<svg aria-hidden="true" style="position: absolute; width: 0; height: 0; overflow: hidden;" version="1.1" xmlns="http://www.w3.org/2000/svg" xmlns:xlink="http://www.w3.org/1999/xlink">
<defs>
<symbol id="icon-update-img" viewBox="0 0 32 32">
<path d="M28.089 1.778h-24.178c-0.566 0-1.109 0.225-1.509 0.625s-0.625 0.943-0.625 1.509v24.178c0 0.566 0.225 1.109 0.625 1.509s0.943 0.625 1.509 0.625h24.178c0.566 0 1.109-0.225 1.509-0.625s0.625-0.943 0.625-1.509v-24.178c0-0.566-0.225-1.109-0.625-1.509s-0.943-0.625-1.509-0.625zM3.2 3.911c0-0.393 0.318-0.711 0.711-0.711h24.178c0.189 0 0.37 0.075 0.503 0.208s0.208 0.314 0.208 0.503v20.622h-3.556v-5.689c0-0.943-0.375-1.848-1.041-2.514s-1.571-1.041-2.514-1.041h-11.378c-0.943 0-1.847 0.375-2.514 1.041s-1.041 1.571-1.041 2.514v5.689h-3.556v-20.622zM20.978 20.267c-0.393 0-0.711 0.318-0.711 0.711v3.556h-8.533v-3.556c0-0.393-0.318-0.711-0.711-0.711s-0.711 0.318-0.711 0.711v3.556h-2.133v-5.689c0-0.566 0.225-1.109 0.625-1.509s0.943-0.625 1.509-0.625h11.377c0.566 0 1.109 0.225 1.509 0.625s0.625 0.943 0.625 1.509v5.689h-2.133v-3.556c0-0.189-0.075-0.37-0.208-0.503s-0.314-0.208-0.503-0.208h0zM28.8 28.089c0 0.189-0.075 0.369-0.208 0.503s-0.314 0.208-0.503 0.208h-24.178c-0.393 0-0.711-0.318-0.711-0.711v-2.133h25.6l-0 2.133z"></path>
<path d="M15.999 14.578c1.32 0 2.586-0.525 3.52-1.458s1.458-2.2 1.458-3.52c0-1.32-0.525-2.586-1.458-3.52s-2.2-1.458-3.52-1.458c-1.32 0-2.586 0.525-3.52 1.458s-1.458 2.2-1.458 3.52c0 1.32 0.525 2.586 1.458 3.52s2.2 1.458 3.52 1.458zM15.999 6.045c0.943 0 1.847 0.375 2.514 1.041s1.041 1.571 1.041 2.514-0.375 1.847-1.041 2.514c-0.667 0.667-1.571 1.041-2.514 1.041s-1.847-0.375-2.514-1.041c-0.667-0.667-1.041-1.571-1.041-2.514s0.375-1.847 1.041-2.514c0.667-0.667 1.571-1.041 2.514-1.041z"></path>
</symbol>
<symbol id="icon-remove-img" viewBox="0 0 32 32">
<path d="M6.343 26.681l0.070 0.063 0.002 0.006-0.116-0.108c-0.011-0.009-0.021-0.019-0.030-0.030l-0.451-0.428c-2.719-2.721-4.218-6.336-4.218-10.182s1.499-7.463 4.218-10.182 6.336-4.218 10.182-4.218c3.846 0 7.463 1.499 10.182 4.218s4.218 6.336 4.218 10.182v0c0 2.079-0.432 4.076-1.283 5.946 0.798 0.898 1.283 2.078 1.283 3.371 0 2.804-2.281 5.084-5.084 5.084-1.292 0-2.475-0.485-3.371-1.283-1.616 0.737-3.327 1.158-5.104 1.258-0.279 0.017-0.559 0.025-0.841 0.025-0.116 0-0.231-0.002-0.347-0.004l-0.669-0.032c-3.193-0.22-6.183-1.482-8.572-3.621l-0.049-0.063h-0.021l-0.008-0.006-0.028-0.026-0.008-0.008 0.036 0.034 0.006 0.006h0.002zM25.316 28.909c1.982 0 3.592-1.611 3.592-3.592 0-1.423-0.832-2.655-2.035-3.236l-0.303-0.129-0.565-0.159-0.69-0.068c-1.586 0-2.935 1.036-3.409 2.465-0.010 0.026-0.019 0.055-0.027 0.083l-0.14 0.709 0.002 0.684 0.106 0.587 0.231 0.621c0.582 1.203 1.813 2.035 3.236 2.035zM20.286 26.048l-0.053-0.731 0.057-0.748-0.002 0.006c0.015-0.097 0.032-0.193 0.051-0.288-0.926-0.468-1.658-0.847-2.084-1.156-0.525-0.381-0.807-0.83-0.855-1.323-0.072-0.724 0.402-1.368 0.892-1.895 0.186-0.201 0.466-0.282 0.731-0.216 0.015 0.006 0.987 0.243 2.103 0.152 0.731-0.059 1.527-0.26 2.151-0.771 0.466-0.383 0.792-0.913 0.981-1.578-0.248 0.163-0.517 0.297-0.807 0.379-0.584 0.165-1.177 0.089-1.713-0.216-0.504-0.286-0.866-0.902-1.112-1.736-0.345-1.177-0.474-2.797-0.544-4.46-0.009-0.244-0.019-0.457-0.028-0.548-0.157-1.533-0.856-2.592-2.090-3.138-0.964-0.426-1.91-0.386-1.923-0.385h-0.082c-0.009 0-0.959-0.044-1.925 0.385-1.233 0.546-1.933 1.605-2.090 3.138l-0.028 0.548c-0.032 0.76-0.087 2.035-0.271 3.206-0.263 1.671-0.722 2.615-1.385 2.99-0.536 0.307-1.129 0.381-1.713 0.216-0.29-0.082-0.561-0.216-0.807-0.381 0.189 0.667 0.517 1.197 0.981 1.58 0.623 0.512 1.419 0.712 2.151 0.771 1.118 0.091 2.090-0.148 2.105-0.15 0.263-0.068 0.546 0.013 0.731 0.214 0.489 0.527 0.963 1.171 0.891 1.897-0.047 0.493-0.33 0.94-0.855 1.321-0.489 0.354-1.381 0.803-2.509 1.368-1.023 0.513-2.154 1.080-3.179 1.679 1.963 1.535 4.32 2.463 6.802 2.681l0.267 0.021 0.873 0.030c1.724 0 3.386-0.332 4.953-0.985-0.099-0.165-0.188-0.337-0.267-0.512l-0.082-0.188-0.252-0.817-0.066-0.36zM23.876 23.012h-0.404c-0.413 0-0.747 0.333-0.747 0.745 0 0.294 0.171 0.548 0.417 0.669v2.503c0 0.779 0.633 1.412 1.412 1.412h1.523c0.779 0 1.413-0.633 1.413-1.412v-2.503c0.246-0.121 0.415-0.375 0.415-0.669 0-0.411-0.333-0.745-0.745-0.745h-0.405c-0.055-0.358-0.364-0.633-0.737-0.633h-1.406c-0.371 0-0.682 0.275-0.737 0.633zM24.634 26.849v-2.346h1.366v2.346h-1.366zM6.358 26.673l-0.133-0.176c0 0 0.011 0.068 0.032 0.1 0.004 0.004 0.008 0.009 0.011 0.013l0.038 0.038c0.015 0.009 0.032 0.019 0.051 0.025zM20.286 26.048v-0.002l0.002 0.006-0.002-0.004zM23.986 20.411c0.424-0.116 0.87-0.178 1.33-0.178l0.548 0.030 0.756 0.14-0.006-0.002c0.049 0.013 0.099 0.027 0.146 0.042l0.629 0.231 0.534 0.279c0.656-1.567 0.985-3.229 0.985-4.953 0-3.448-1.341-6.69-3.78-9.129-2.439-2.437-5.68-3.78-9.129-3.78s-6.69 1.343-9.127 3.782c-2.439 2.437-3.782 5.679-3.782 9.127s1.343 6.69 3.782 9.129c0.004 0.004 0.008 0.008 0.011 0.011 1.186-0.722 2.556-1.41 3.683-1.974 1.017-0.51 1.897-0.949 2.302-1.243 0.049-0.036 0.116-0.089 0.172-0.148 0.034-0.038 0.070-0.072 0.074-0.112 0.004-0.042-0.019-0.091-0.045-0.144-0.045-0.093-0.116-0.191-0.186-0.282-1.002 0.17-3.412 0.383-5.104-1.004-1.25-1.027-1.838-2.675-1.717-4.913 0.017-0.332 0.252-0.612 0.576-0.686s0.657 0.074 0.819 0.364c0.116 0.205 0.396 0.623 0.752 0.966 0.224 0.216 0.479 0.405 0.743 0.479 0.201 0.057 0.383 0.030 0.572-0.078 0.028-0.017 0.11-0.091 0.222-0.322 0.136-0.286 0.296-0.775 0.426-1.603 0.172-1.095 0.224-2.312 0.254-3.037l0.034-0.637c0.271-2.656 1.792-3.841 3.015-4.369 1.179-0.508 2.298-0.5 2.524-0.493 0.225-0.008 1.345-0.015 2.524 0.493 1.224 0.529 2.744 1.713 3.014 4.369l0.034 0.637c0.030 0.726 0.083 1.944 0.254 3.037 0.131 0.828 0.29 1.317 0.428 1.603 0.11 0.231 0.191 0.305 0.222 0.322 0.19 0.108 0.371 0.134 0.572 0.078 0.265-0.074 0.521-0.267 0.746-0.487 0.358-0.347 0.64-0.767 0.747-0.959 0.161-0.29 0.495-0.438 0.819-0.364s0.559 0.354 0.578 0.686c0.119 2.238-0.466 3.886-1.719 4.913-0.076 0.063-0.153 0.121-0.233 0.178zM22.442 21.127c-1.315 0.36-2.645 0.225-3.327 0.11-0.070 0.091-0.138 0.189-0.186 0.282-0.027 0.053-0.049 0.102-0.045 0.144 0.004 0.040 0.040 0.074 0.074 0.112 0.057 0.059 0.123 0.112 0.174 0.148 0.326 0.237 0.961 0.568 1.726 0.955 0.385-0.701 0.928-1.3 1.584-1.751z"></path>
</symbol>
<symbol id="icon-upload" viewBox="0 0 40 32">
<path  d="M31.548 8.052c-0.611-1.351-1.562-2.509-2.776-3.372-1.399-0.995-3.045-1.52-4.761-1.52-1.067 0-2.096 0.199-3.069 0.594-1.527-2.332-4.114-3.753-6.91-3.753-4.569 0-8.287 3.758-8.287 8.379 0 0.025 0 0.051 0 0.076-1.535 0.501-2.913 1.459-3.93 2.742-1.171 1.478-1.816 3.337-1.816 5.235 0 4.62 3.717 8.379 8.287 8.379h7.163v5.037c0 1.187 0.955 2.153 2.129 2.153h4.6c1.174 0 2.129-0.966 2.129-2.153l0.001-5.038h7.162c4.569 0 8.287-3.758 8.287-8.379-0.001-4.593-3.676-8.335-8.209-8.378l-0 0zM22.756 20.329v9.516c0 0.322-0.259 0.583-0.576 0.583l-4.6 0c-0.318 0-0.576-0.262-0.576-0.583v-9.516c0-0.433-0.348-0.785-0.776-0.785h-1.71l5.362-5.346 5.362 5.346h-1.709c-0.429 0-0.777 0.352-0.777 0.785l-0-0zM31.471 23.238h-7.163v-2.124h2.001c0.454 0 0.859-0.275 1.031-0.699s0.075-0.908-0.248-1.231l-6.431-6.411c-0.431-0.43-1.133-0.43-1.565 0l-6.431 6.412c-0.323 0.323-0.421 0.806-0.249 1.23s0.577 0.7 1.031 0.7h2.001v2.124h-7.162c-3.713 0-6.733-3.054-6.733-6.808 0-3.172 2.128-5.896 5.177-6.625 0.375-0.089 0.628-0.444 0.595-0.832-0.017-0.201-0.026-0.401-0.026-0.595 0-3.754 3.021-6.808 6.733-6.808 2.469 0 4.738 1.364 5.919 3.56 0.201 0.372 0.657 0.517 1.032 0.326 0.944-0.482 1.963-0.726 3.028-0.726 2.782 0 5.314 1.767 6.299 4.398 0.12 0.321 0.434 0.524 0.771 0.506 0.134-0.008 0.265-0.012 0.39-0.012 3.713 0 6.733 3.054 6.733 6.808s-3.019 6.808-6.732 6.808h0z"></path>
</symbol>
</defs>
</svg>
